<svg xmlns="http://www.w3.org/2000/svg" xml:space="preserve" fill="#000" style="enable-background:new 0 0 473 473" viewBox="0 0 473 473"><path d="m317.667 214.42 5.667-86.42h20.951V38h-98.384V0H132.669v38H34.285v90h20.951l20 305h140.571c23.578 24.635 56.766 40 93.478 40 71.368 0 129.43-58.062 129.43-129.43 0-68.551-53.572-124.815-121.048-129.15zM162.669 30h53.232v8h-53.232v-8zM64.285 68h250v30h-250V68zm39.049 335L85.301 128H293.27l-5.77 87.985c-61.031 10.388-107.645 63.642-107.645 127.586 0 21.411 5.231 41.622 14.475 59.43h-90.996zm205.951 40c-54.826 0-99.43-44.604-99.43-99.43s44.604-99.429 99.43-99.429 99.43 44.604 99.43 99.429S364.111 443 309.285 443z"/><path d="m342.248 289.395-32.963 32.963-32.963-32.963-21.213 21.213 32.963 32.963-32.963 32.962 21.213 21.213 32.963-32.963 32.963 32.963 21.213-21.213-32.963-32.962 32.963-32.963z"/></svg>