<?xml version="1.0" standalone="no"?>
<!DOCTYPE svg PUBLIC "-//W3C//DTD SVG 20010904//EN"
 "http://www.w3.org/TR/2001/REC-SVG-20010904/DTD/svg10.dtd">
<svg version="1.0" xmlns="http://www.w3.org/2000/svg"
 width="320.000000pt" height="320.000000pt" viewBox="0 0 320.000000 320.000000"
 preserveAspectRatio="xMidYMid meet">
<metadata>
Created by potrace 1.14, written by Peter Selinger 2001-2017
</metadata>
<g transform="translate(0.000000,320.000000) scale(0.100000,-0.100000)"
fill="#000000" stroke="none">
<path d="M1359 3018 c0 -7 -3 -24 -5 -38 -3 -14 -5 -33 -6 -42 -1 -10 -6 -18
-11 -18 -4 0 -6 -4 -3 -9 4 -5 2 -21 -4 -35 -14 -37 -22 -77 -21 -105 1 -12
-2 -28 -7 -35 -4 -6 -7 -18 -7 -26 -1 -33 -29 -100 -42 -100 -10 0 -11 -5 -4
-19 8 -14 6 -23 -9 -36 -11 -10 -23 -15 -28 -11 -4 4 0 13 8 19 26 20 19 128
-11 167 -30 40 -108 118 -134 136 -43 28 -203 16 -249 -20 -18 -13 -48 -31
-67 -39 -47 -19 -61 -40 -61 -87 1 -24 -5 -43 -13 -47 -37 -21 -51 -125 -21
-148 9 -7 11 -17 5 -32 -13 -36 8 -83 38 -83 17 0 23 -4 20 -14 -11 -29 31
-50 100 -51 96 0 101 -10 72 -152 -6 -29 -7 -58 -4 -64 4 -6 -2 -13 -14 -16
-25 -6 -26 -10 -6 -30 16 -15 11 -38 -6 -27 -5 3 -9 -7 -9 -23 0 -15 -1 -65
-3 -110 -4 -80 -1 -89 26 -84 5 1 6 -3 3 -8 -9 -13 -87 -53 -94 -47 -3 3 5 33
17 66 12 33 19 65 16 70 -4 6 -2 17 5 25 16 19 -22 105 -46 105 -13 0 -15 6
-10 33 13 59 12 128 -1 139 -7 6 -13 17 -13 24 0 8 -5 14 -11 14 -5 0 -8 4 -5
9 9 13 -25 38 -72 52 -37 11 -48 10 -78 -4 -19 -10 -39 -15 -44 -12 -4 2 -18
-3 -31 -13 -13 -10 -37 -24 -52 -32 -16 -8 -33 -22 -38 -32 -5 -10 -18 -18
-28 -18 -10 0 -24 -7 -31 -15 -7 -8 -18 -15 -25 -15 -8 0 -22 -11 -33 -25 -11
-13 -31 -29 -45 -36 -43 -19 -76 -116 -46 -134 7 -5 5 -15 -6 -32 -9 -13 -15
-29 -12 -36 2 -6 -2 -27 -9 -46 -12 -35 -2 -91 16 -91 4 0 6 -9 3 -19 -3 -12
4 -28 17 -41 17 -17 30 -21 61 -17 27 3 45 0 54 -10 8 -8 20 -11 26 -7 8 4 9
3 5 -4 -4 -7 2 -16 16 -22 13 -5 32 -16 43 -22 11 -7 21 -14 23 -15 2 0 -8
-18 -22 -40 -14 -21 -30 -60 -37 -88 -6 -27 -14 -57 -16 -65 -6 -18 -5 -144 1
-180 13 -81 64 -205 122 -297 18 -29 37 -67 42 -84 8 -31 18 -42 54 -53 10 -3
34 -38 54 -77 20 -40 52 -90 73 -110 20 -21 56 -65 80 -98 25 -34 54 -62 68
-66 13 -3 38 -18 54 -33 17 -15 45 -39 62 -54 17 -16 39 -28 48 -28 10 0 48
-29 84 -65 36 -36 72 -65 81 -65 19 0 69 52 76 78 3 10 -12 55 -34 101 -21 45
-41 102 -44 126 l-5 44 30 -12 c16 -6 28 -14 25 -18 -2 -4 2 -9 10 -12 8 -3
29 -38 47 -77 18 -39 42 -78 53 -85 18 -13 22 -12 45 16 l26 30 50 -63 c84
-104 162 -180 182 -176 10 2 31 28 48 63 17 33 31 62 32 64 1 2 40 -20 87 -48
47 -28 88 -51 92 -51 4 0 15 -7 25 -16 33 -30 53 -10 98 107 l44 110 28 -27
c27 -25 29 -26 52 -11 25 16 102 192 102 232 0 37 57 82 167 133 4 2 12 -14
17 -36 13 -48 47 -70 81 -52 22 12 70 101 70 131 0 9 3 19 7 23 4 3 12 22 19
41 9 28 96 168 114 185 3 3 18 33 33 67 37 84 57 184 51 261 -3 38 0 62 6 63
5 1 15 3 20 4 6 1 15 3 20 4 6 0 10 9 10 18 0 9 3 13 6 10 8 -7 59 26 90 59
31 32 37 68 19 111 -9 20 -13 43 -11 50 10 26 -14 64 -49 79 -35 14 -48 45
-25 59 6 4 8 10 5 15 -3 5 -1 11 3 14 15 9 1 59 -22 82 -12 11 -33 36 -49 56
-30 39 -90 61 -141 51 -25 -5 -28 -3 -23 11 4 10 4 23 0 29 -4 7 -8 26 -9 42
-1 17 -3 30 -4 30 -1 0 -4 16 -7 35 -7 55 -20 71 -28 35 -4 -17 -14 -57 -22
-90 -20 -81 -23 -104 -12 -111 5 -3 9 -12 9 -21 0 -14 -2 -14 -22 0 -16 10
-22 22 -20 41 3 20 -1 26 -15 26 -17 1 -17 1 -1 14 16 12 16 14 0 29 -12 13
-13 17 -3 17 11 0 11 3 0 17 -8 9 -14 28 -15 42 -1 14 -4 33 -7 41 -6 17 -28
129 -33 175 -6 43 -24 95 -34 95 -12 0 -18 -23 -26 -95 -3 -33 -9 -64 -12 -70
-4 -5 -5 -21 -3 -35 l3 -25 -23 20 c-13 11 -30 26 -38 33 -8 8 -24 11 -38 7
-18 -4 -30 1 -49 24 -26 31 -57 47 -86 42 -9 -1 -22 8 -29 21 -6 13 -27 38
-45 56 -31 30 -39 33 -84 29 -27 -2 -50 0 -50 5 0 10 56 39 63 32 3 -3 24 6
46 20 23 15 65 39 94 55 l53 28 47 -24 c71 -36 164 -37 187 -3 3 4 37 17 77
29 71 21 102 41 65 41 -11 0 -35 -6 -53 -14 -61 -25 -110 -29 -125 -9 -7 10
-14 25 -14 34 0 9 -7 20 -16 23 -23 9 -27 8 -20 -9 7 -20 -14 -19 -43 1 l-22
16 23 25 c23 25 74 56 82 51 2 -2 8 0 12 5 4 4 2 7 -4 7 -30 0 -5 20 68 56 44
21 80 42 80 45 0 24 -68 9 -185 -41 -111 -48 -154 -60 -179 -50 -26 10 -29 7
-27 -21 3 -25 -49 -11 -59 16 -11 29 -41 41 -52 20 -11 -19 -36 -19 -84 1
-104 44 -176 46 -187 4 -4 -17 47 -80 66 -80 4 0 41 -16 81 -35 41 -19 80 -35
88 -35 7 0 19 -4 26 -9 9 -5 -12 -19 -65 -41 -43 -18 -105 -46 -137 -62 -41
-19 -62 -25 -67 -17 -9 14 -122 19 -167 7 -19 -5 -44 -19 -56 -30 -25 -24 -57
-42 -54 -31 1 4 -3 18 -10 30 -9 17 -9 22 1 26 9 3 9 7 0 18 -6 8 -23 55 -36
104 -14 50 -30 104 -38 120 -7 17 -14 41 -15 55 -2 23 -9 57 -14 70 -1 3 -2
12 -1 21 3 26 -28 89 -44 89 -8 0 -15 -6 -16 -12z m571 -530 c0 -13 -62 -68
-76 -68 -8 0 -14 7 -14 15 0 9 -7 18 -16 22 -29 11 25 43 68 40 21 -1 38 -5
38 -9z m-1037 -45 c34 -59 29 -69 -14 -27 -41 40 -50 64 -24 64 9 0 26 -17 38
-37z m61 21 c9 -8 16 -23 15 -32 0 -12 -2 -13 -6 -3 -5 11 -7 11 -14 0 -8 -12
-11 -11 -19 1 -12 19 -13 50 -1 50 5 0 17 -7 25 -16z m-144 -4 c0 -5 -4 -10
-10 -10 -5 0 -10 5 -10 10 0 6 5 10 10 10 6 0 10 -4 10 -10z m220 1 c0 -13
-26 -32 -33 -24 -8 7 11 33 24 33 5 0 9 -4 9 -9z m-161 -75 c21 -22 22 -26 7
-26 -17 0 -66 46 -66 62 0 13 31 -6 59 -36z m188 -94 c-10 -10 -17 -24 -17
-31 0 -6 -7 -28 -15 -49 -13 -29 -18 -34 -25 -22 -13 21 -12 80 1 80 6 0 22 9
36 20 32 25 41 26 20 2z m1544 -345 c-1 -12 -15 -9 -19 4 -3 6 1 10 8 8 6 -3
11 -8 11 -12z m-1831 -161 c0 -8 -4 -18 -10 -21 -5 -3 -10 -4 -10 -1 0 2 -3
11 -6 20 -4 11 -1 16 10 16 9 0 16 -6 16 -14z m-296 -107 c25 -42 14 -47 -35
-15 -38 25 -39 28 -23 41 24 17 36 11 58 -26z"/>
</g>
</svg>
